<svg xmlns="http://www.w3.org/2000/svg" viewBox="0 0 1600 900" role="img" aria-label="Abstract van road hero">
  <defs>
    <linearGradient id="bg" x1="0" x2="1" y1="0" y2="1">
      <stop offset="0%" stop-color="#0b1324"/>
      <stop offset="55%" stop-color="#1e3a8a"/>
      <stop offset="100%" stop-color="#0e7490"/>
    </linearGradient>
    <radialGradient id="sun" cx="80%" cy="20%" r="35%">
      <stop offset="0%" stop-color="#fde68a" stop-opacity="0.95"/>
      <stop offset="100%" stop-color="#fde68a" stop-opacity="0"/>
    </radialGradient>
  </defs>
  <rect width="1600" height="900" fill="url(#bg)"/>
  <rect width="1600" height="900" fill="url(#sun)"/>
  <path d="M0 680 C240 610 420 650 640 620 C930 575 1210 650 1600 590 L1600 900 L0 900 Z" fill="#0f172a" opacity="0.8"/>
  <path d="M0 730 C260 690 500 760 820 720 C1080 690 1330 740 1600 710" stroke="#38bdf8" stroke-opacity="0.35" stroke-width="4" fill="none"/>
  <rect x="430" y="530" width="740" height="170" rx="26" fill="#f8fafc" opacity="0.95"/>
  <rect x="505" y="565" width="230" height="80" rx="12" fill="#dbeafe"/>
  <rect x="770" y="565" width="310" height="80" rx="12" fill="#e2e8f0"/>
  <circle cx="590" cy="720" r="50" fill="#0f172a"/>
  <circle cx="1020" cy="720" r="50" fill="#0f172a"/>
</svg>
